<?xml version="1.0" encoding="utf-8"?>
<!-- Generator: Adobe Illustrator 24.1.2, SVG Export Plug-In . SVG Version: 6.00 Build 0)  -->
<svg version="1.1" id="Capa_1" xmlns="http://www.w3.org/2000/svg" xmlns:xlink="http://www.w3.org/1999/xlink" x="0px" y="0px"
	 viewBox="0 0 512 512" style="enable-background:new 0 0 512 512;" xml:space="preserve">
<style type="text/css">
	.st0{fill:#FFFFFF;}
</style>
<path class="st0" d="M452,68H60C26.9,68,0,94.9,0,128v256c0,33.1,26.9,60,60,60h392c33.1,0,60-26.9,60-60V128
	C512,94.9,485.1,68,452,68z M448.4,108L256,251.1L63.6,108H448.4z M452,404H60c-11,0-20-9-20-20V140.3l216,160.7l216-160.7V384
	C472,395,463,404,452,404z"/>
</svg>
