<svg width="18" height="24" viewBox="0 0 18 24" fill="none" xmlns="http://www.w3.org/2000/svg">
<path d="M9 13.625C8.19652 13.625 7.41107 13.3867 6.743 12.9403C6.07492 12.494 5.55422 11.8595 5.24674 11.1172C4.93926 10.3748 4.85881 9.558 5.01556 8.76995C5.17231 7.9819 5.55923 7.25803 6.12738 6.68988C6.69553 6.12173 7.4194 5.73481 8.20745 5.57806C8.9955 5.42131 9.81233 5.50176 10.5547 5.80924C11.297 6.11672 11.9315 6.63742 12.3778 7.3055C12.8242 7.97357 13.0625 8.75902 13.0625 9.5625C13.0612 10.6395 12.6328 11.6721 11.8712 12.4337C11.1096 13.1953 10.077 13.6237 9 13.625ZM9 7.125C8.51791 7.125 8.04664 7.26796 7.6458 7.53579C7.24495 7.80363 6.93253 8.18432 6.74805 8.62971C6.56356 9.07511 6.51529 9.56521 6.60934 10.038C6.70339 10.5109 6.93554 10.9452 7.27643 11.2861C7.61732 11.627 8.05164 11.8591 8.52447 11.9532C8.9973 12.0472 9.4874 11.9989 9.93279 11.8145C10.3782 11.63 10.7589 11.3175 11.0267 10.9167C11.2945 10.5159 11.4375 10.0446 11.4375 9.5625C11.4369 8.91623 11.1798 8.29662 10.7229 7.83964C10.2659 7.38266 9.64627 7.12565 9 7.125Z" fill="white"/>
<path d="M9.00001 23.375L2.14576 15.2914C2.05052 15.1701 1.95627 15.0479 1.86301 14.925C0.692181 13.3827 0.0596715 11.4989 0.0625095 9.5625C0.0625095 7.19213 1.00414 4.91884 2.68024 3.24273C4.35635 1.56663 6.62964 0.625 9.00001 0.625C11.3704 0.625 13.6437 1.56663 15.3198 3.24273C16.9959 4.91884 17.9375 7.19213 17.9375 9.5625C17.9403 11.498 17.3081 13.381 16.1378 14.9226L16.137 14.925C16.137 14.925 15.8933 15.2451 15.8567 15.2882L9.00001 23.375ZM3.15976 13.9459C3.16138 13.9459 3.34988 14.1962 3.39295 14.2498L9.00001 20.8628L14.6144 14.2409C14.6501 14.1962 14.8403 13.9443 14.8411 13.9435C15.7975 12.6834 16.3144 11.1445 16.3125 9.5625C16.3125 7.6231 15.5421 5.76314 14.1707 4.39178C12.7994 3.02042 10.9394 2.25 9.00001 2.25C7.06061 2.25 5.20065 3.02042 3.82929 4.39178C2.45793 5.76314 1.68751 7.6231 1.68751 9.5625C1.6858 11.1454 2.20327 12.6853 3.16057 13.9459H3.15976Z" fill="white"/>
</svg>
