<svg width="18" height="26" viewBox="0 0 18 26" fill="none" xmlns="http://www.w3.org/2000/svg">
<path fill-rule="evenodd" clip-rule="evenodd" d="M13.875 1.625H4.125C3.69402 1.625 3.2807 1.7962 2.97595 2.10095C2.67121 2.4057 2.5 2.81902 2.5 3.25V22.75C2.5 23.181 2.67121 23.5943 2.97595 23.899C3.2807 24.2038 3.69402 24.375 4.125 24.375H13.875C14.306 24.375 14.7193 24.2038 15.024 23.899C15.3288 23.5943 15.5 23.181 15.5 22.75V3.25C15.5 2.81902 15.3288 2.4057 15.024 2.10095C14.7193 1.7962 14.306 1.625 13.875 1.625ZM4.125 0C3.26305 0 2.4364 0.34241 1.8269 0.951903C1.21741 1.5614 0.875 2.38805 0.875 3.25V22.75C0.875 23.612 1.21741 24.4386 1.8269 25.0481C2.4364 25.6576 3.26305 26 4.125 26H13.875C14.737 26 15.5636 25.6576 16.1731 25.0481C16.7826 24.4386 17.125 23.612 17.125 22.75V3.25C17.125 2.38805 16.7826 1.5614 16.1731 0.951903C15.5636 0.34241 14.737 0 13.875 0L4.125 0Z" fill="white"/>
<path fill-rule="evenodd" clip-rule="evenodd" d="M9 22.75C9.43098 22.75 9.8443 22.5788 10.149 22.274C10.4538 21.9693 10.625 21.556 10.625 21.125C10.625 20.694 10.4538 20.2807 10.149 19.976C9.8443 19.6712 9.43098 19.5 9 19.5C8.56902 19.5 8.1557 19.6712 7.85095 19.976C7.54621 20.2807 7.375 20.694 7.375 21.125C7.375 21.556 7.54621 21.9693 7.85095 22.274C8.1557 22.5788 8.56902 22.75 9 22.75Z" fill="white"/>
</svg>
